<svg width="237" height="21" viewBox="0 0 237 21" fill="none" xmlns="http://www.w3.org/2000/svg">
<path d="M7.98744 21C6.38995 21 4.85391 20.7542 3.3793 20.2626C1.92518 19.7711 0.798744 19.1222 0 18.316L0.890907 16.6348C1.66917 17.382 2.70344 17.9916 3.99372 18.4635C5.284 18.9157 6.61524 19.1419 7.98744 19.1419C9.91262 19.1419 11.3565 18.8076 12.3191 18.139C13.2817 17.4508 13.763 16.566 13.763 15.4846C13.763 14.6587 13.4967 14 12.9642 13.5084C12.4522 13.0169 11.8173 12.6433 11.0595 12.3876C10.3018 12.1124 9.247 11.8174 7.89528 11.5028C6.27731 11.1096 4.98703 10.736 4.02444 10.382C3.06185 10.0084 2.23239 9.44803 1.53605 8.70084C0.860186 7.95365 0.522256 6.94101 0.522256 5.66292C0.522256 4.62079 0.808985 3.67697 1.38244 2.83146C1.9559 1.96629 2.83657 1.27809 4.02444 0.766855C5.21232 0.255618 6.68692 0 8.44826 0C9.67709 0 10.8752 0.167135 12.0426 0.501405C13.2305 0.816011 14.2545 1.25843 15.1147 1.82865L14.3467 3.56882C13.4455 2.9986 12.4829 2.57584 11.4589 2.30056C10.4349 2.00562 9.43133 1.85815 8.44826 1.85815C6.56404 1.85815 5.14064 2.21208 4.17805 2.91994C3.23594 3.60815 2.76488 4.50281 2.76488 5.60393C2.76488 6.42978 3.02089 7.09831 3.53291 7.60955C4.0654 8.10112 4.72078 8.48455 5.49905 8.75983C6.29779 9.01545 7.36278 9.30056 8.69402 9.61517C10.271 9.98876 11.5408 10.3624 12.5034 10.736C13.4865 11.0899 14.316 11.6405 14.9918 12.3876C15.6677 13.1152 16.0056 14.1081 16.0056 15.3666C16.0056 16.4087 15.7086 17.3624 15.1147 18.2275C14.5412 19.073 13.6503 19.7514 12.442 20.2626C11.2336 20.7542 9.74878 21 7.98744 21Z" fill="black"/>
<path d="M36.1657 18.9354V20.823H20.9589V0.176966H35.7049V2.06461H23.2322V9.40871H34.3532V11.2669H23.2322V18.9354H36.1657Z" fill="black"/>
<path d="M56.1941 20.823L51.2788 14.1868C50.7258 14.2458 50.1523 14.2753 49.5584 14.2753H43.7829V20.823H41.5095V0.176966H49.5584C52.3028 0.176966 54.4533 0.806179 56.0098 2.06461C57.5663 3.32303 58.3446 5.05337 58.3446 7.25562C58.3446 8.86798 57.9145 10.2346 57.0543 11.3553C56.2146 12.4565 55.0062 13.2528 53.4292 13.7444L58.6825 20.823H56.1941ZM49.497 12.4171C51.6269 12.4171 53.2551 11.9649 54.3816 11.0604C55.508 10.1559 56.0712 8.88764 56.0712 7.25562C56.0712 5.58427 55.508 4.30618 54.3816 3.42135C53.2551 2.51685 51.6269 2.06461 49.497 2.06461H43.7829V12.4171H49.497Z" fill="black"/>
<path d="M78.8556 10.5H81.0368V18.375C80.0332 19.2205 78.8454 19.8694 77.4732 20.3216C76.101 20.7739 74.6571 21 73.1415 21C70.991 21 69.0556 20.5478 67.3353 19.6433C65.6149 18.7388 64.2632 17.4902 63.2801 15.8975C62.297 14.2851 61.8055 12.486 61.8055 10.5C61.8055 8.51405 62.297 6.72472 63.2801 5.13202C64.2632 3.51966 65.6149 2.26124 67.3353 1.35674C69.0556 0.452248 71.0013 0 73.1722 0C74.8107 0 76.316 0.255618 77.6882 0.766855C79.0604 1.25843 80.2176 1.99579 81.1597 2.97893L79.7465 4.36517C78.0466 2.75281 75.8859 1.94663 73.2644 1.94663C71.5235 1.94663 69.9465 2.32022 68.5334 3.06741C67.1407 3.79494 66.045 4.81742 65.2462 6.13483C64.4475 7.43259 64.0481 8.88764 64.0481 10.5C64.0481 12.1124 64.4475 13.5674 65.2462 14.8652C66.045 16.1629 67.1407 17.1854 68.5334 17.9326C69.9261 18.6798 71.4928 19.0534 73.2337 19.0534C75.4456 19.0534 77.3196 18.5225 78.8556 17.4607V10.5Z" fill="black"/>
<path d="M87.4709 0.176966H89.7443V20.823H87.4709V0.176966Z" fill="black"/>
<path d="M106.142 21C104.012 21 102.076 20.5478 100.336 19.6433C98.6152 18.7191 97.2634 17.4607 96.2804 15.868C95.3178 14.2753 94.8365 12.486 94.8365 10.5C94.8365 8.51405 95.3178 6.72472 96.2804 5.13202C97.2634 3.53933 98.6152 2.29073 100.336 1.38624C102.076 0.462079 104.012 0 106.142 0C108.272 0 110.187 0.452248 111.887 1.35674C113.607 2.26124 114.959 3.51966 115.942 5.13202C116.925 6.72472 117.416 8.51405 117.416 10.5C117.416 12.486 116.925 14.2851 115.942 15.8975C114.959 17.4902 113.607 18.7388 111.887 19.6433C110.187 20.5478 108.272 21 106.142 21ZM106.142 19.0534C107.842 19.0534 109.378 18.6896 110.75 17.9621C112.122 17.2149 113.197 16.1924 113.976 14.8947C114.754 13.5772 115.143 12.1124 115.143 10.5C115.143 8.88764 114.754 7.43259 113.976 6.13483C113.197 4.81742 112.122 3.79494 110.75 3.06741C109.378 2.32022 107.842 1.94663 106.142 1.94663C104.442 1.94663 102.896 2.32022 101.503 3.06741C100.131 3.79494 99.0453 4.81742 98.2465 6.13483C97.4682 7.43259 97.0791 8.88764 97.0791 10.5C97.0791 12.1124 97.4682 13.5772 98.2465 14.8947C99.0453 16.1924 100.131 17.2149 101.503 17.9621C102.896 18.6896 104.442 19.0534 106.142 19.0534Z" fill="black"/>
<path d="M144.1 10.1756C145.513 10.4705 146.599 11.0604 147.357 11.9452C148.135 12.8104 148.524 13.9312 148.524 15.3076C148.524 17.0772 147.838 18.4438 146.466 19.4073C145.114 20.3511 143.107 20.823 140.444 20.823H130.552V0.176966H139.83C142.226 0.176966 144.08 0.639045 145.39 1.5632C146.722 2.48736 147.387 3.79494 147.387 5.48595C147.387 6.6264 147.09 7.59972 146.496 8.4059C145.923 9.19242 145.124 9.7823 144.1 10.1756ZM132.826 1.97612V9.4677H139.676C141.417 9.4677 142.759 9.15309 143.701 8.52388C144.643 7.875 145.114 6.94101 145.114 5.72191C145.114 4.50281 144.643 3.57865 143.701 2.94944C142.759 2.30056 141.417 1.97612 139.676 1.97612H132.826ZM140.414 19.0239C142.339 19.0239 143.793 18.7093 144.776 18.0801C145.759 17.4508 146.251 16.4677 146.251 15.1306C146.251 12.5548 144.305 11.2669 140.414 11.2669H132.826V19.0239H140.414Z" fill="black"/>
<path d="M162.376 21C159.591 21 157.42 20.2331 155.863 18.6994C154.307 17.1657 153.529 14.934 153.529 12.0042V0.176966H155.802V11.9157C155.802 14.3146 156.365 16.1039 157.492 17.2837C158.618 18.4635 160.246 19.0534 162.376 19.0534C164.527 19.0534 166.165 18.4635 167.292 17.2837C168.418 16.1039 168.981 14.3146 168.981 11.9157V0.176966H171.193V12.0042C171.193 14.934 170.415 17.1657 168.858 18.6994C167.322 20.2331 165.162 21 162.376 21Z" fill="black"/>
<path d="M181.802 2.06461H174.244V0.176966H191.632V2.06461H184.075V20.823H181.802V2.06461Z" fill="black"/>
<path d="M201.931 11.1194L197.538 15.3961V20.823H195.264V0.176966H197.538V12.6531L210.164 0.176966H212.775L203.467 9.52669L213.42 20.823H210.717L201.931 11.1194Z" fill="black"/>
<path d="M225.725 21C223.595 21 221.66 20.5478 219.919 19.6433C218.199 18.7191 216.847 17.4607 215.864 15.868C214.901 14.2753 214.42 12.486 214.42 10.5C214.42 8.51405 214.901 6.72472 215.864 5.13202C216.847 3.53933 218.199 2.29073 219.919 1.38624C221.66 0.462079 223.595 0 225.725 0C227.855 0 229.77 0.452248 231.47 1.35674C233.191 2.26124 234.542 3.51966 235.525 5.13202C236.508 6.72472 237 8.51405 237 10.5C237 12.486 236.508 14.2851 235.525 15.8975C234.542 17.4902 233.191 18.7388 231.47 19.6433C229.77 20.5478 227.855 21 225.725 21ZM225.725 19.0534C227.425 19.0534 228.961 18.6896 230.334 17.9621C231.706 17.2149 232.781 16.1924 233.559 14.8947C234.338 13.5772 234.727 12.1124 234.727 10.5C234.727 8.88764 234.338 7.43259 233.559 6.13483C232.781 4.81742 231.706 3.79494 230.334 3.06741C228.961 2.32022 227.425 1.94663 225.725 1.94663C224.026 1.94663 222.479 2.32022 221.087 3.06741C219.714 3.79494 218.629 4.81742 217.83 6.13483C217.052 7.43259 216.663 8.88764 216.663 10.5C216.663 12.1124 217.052 13.5772 217.83 14.8947C218.629 16.1924 219.714 17.2149 221.087 17.9621C222.479 18.6896 224.026 19.0534 225.725 19.0534Z" fill="black"/>
</svg>
