<svg fill="none" height="10" viewBox="0 0 94 10" width="94" xmlns="http://www.w3.org/2000/svg"><g fill="#000"><path d="m3.684 9.072c-.624 0-1.224-.1-1.8-.3-.568-.2-1.008005-.464-1.320005-.792l.348-.684c.304005.304.708005.552 1.212005.744.504.184 1.024.276 1.56.276.752 0 1.316-.136 1.692-.408.376-.28.564-.64.564-1.08 0-.336-.104-.604-.312-.804-.2-.2-.448-.352-.744-.456-.296-.112-.708-.232-1.236-.36-.632-.16-1.136-.312-1.512-.456-.376-.152-.7-.38-.972-.684-.264005-.304-.396005-.716-.396005-1.236 0-.424.112-.808.336005-1.152.224-.352.568-.632 1.032-.84s1.04-.312 1.728-.312c.48 0 .948.068 1.404.204.464.128.864.308 1.2.54l-.3.708c-.352-.232-.728-.404-1.128-.516-.4-.12-.792-.18-1.176-.18-.736 0-1.292.144-1.668.432-.368.28-.552.644-.552 1.092 0 .336.1.608.3.816.208.2.464.356.768.468.312.104.728.22 1.248.348.616.152 1.112.304 1.488.456.384.144.708.368.972.672.264.296.396.7.396 1.212 0 .424-.116.812-.348 1.164-.224.344-.572.62-1.044.828-.472.2-1.052.3-1.74.3z"/><path d="m14.6908 8.232v.768h-5.93999v-8.4h5.75999v.768h-4.87199v2.988h4.34399v.756h-4.34399v3.12z"/><path d="m22.5142 9-1.92-2.7c-.216.024-.44.036-.672.036h-2.256v2.664h-.888v-8.4h3.144c1.072 0 1.912.256 2.52.768s.912 1.216.912 2.112c0 .656-.168 1.212-.504 1.668-.328.448-.8.772-1.416.972l2.052 2.88zm-2.616-3.42c.832 0 1.468-.184 1.908-.552s.66-.884.66-1.548c0-.68-.22-1.2-.66-1.56-.44-.368-1.076-.552-1.908-.552h-2.232v4.212z"/><path d="m31.366 4.8h.852v3.204c-.392.344-.856.608-1.392.792s-1.1.276-1.692.276c-.84 0-1.596-.184-2.268-.552s-1.2-.876-1.584-1.524c-.384-.656-.576-1.388-.576-2.196s.192-1.536.576-2.184c.384-.656.912-1.168 1.584-1.536s1.432-.552 2.28-.552c.64 0 1.228.104 1.764.312.536.2.988.5 1.356.9l-.552.564c-.664-.656-1.508-.984-2.532-.984-.68 0-1.296.152-1.848.456-.544.296-.972.712-1.284 1.248-.312.528-.468 1.12-.468 1.776s.156 1.248.468 1.776.74.944 1.284 1.248 1.156.456 1.836.456c.864 0 1.596-.216 2.196-.648z"/><path d="m34.7313.6h.888v8.4h-.888z"/><path d="m42.0244 9.072c-.832 0-1.588-.184-2.268-.552-.672-.376-1.2-.888-1.584-1.536-.376-.648-.564-1.376-.564-2.184s.188-1.536.564-2.184c.384-.648.912-1.156 1.584-1.524.68-.376 1.436-.564 2.268-.564s1.58.184 2.244.552c.672.368 1.2.88 1.584 1.536.384.648.576 1.376.576 2.184s-.192 1.54-.576 2.196c-.384.648-.912 1.156-1.584 1.524-.664.368-1.412.552-2.244.552zm0-.792c.664 0 1.264-.148 1.8-.444.536-.304.956-.72 1.26-1.248.304-.536.456-1.132.456-1.788s-.152-1.248-.456-1.776c-.304-.536-.724-.952-1.26-1.248-.536-.304-1.136-.456-1.8-.456s-1.268.152-1.812.456c-.536.296-.96.712-1.272 1.248-.304.528-.456 1.12-.456 1.776s.152 1.252.456 1.788c.312.528.736.944 1.272 1.248.544.296 1.148.444 1.812.444z"/><path d="m56.8514 4.668c.552.12.976.36 1.272.72.304.352.456.808.456 1.368 0 .72-.268 1.276-.804 1.668-.528.384-1.312.576-2.352.576h-3.864v-8.4h3.624c.936 0 1.66.188 2.172.564.52.376.78.908.78 1.596 0 .464-.116.86-.348 1.188-.224.32-.536.56-.936.72zm-4.404-3.336v3.048h2.676c.68 0 1.204-.128 1.572-.384.368-.264.552-.644.552-1.14s-.184-.872-.552-1.128c-.368-.264-.892-.396-1.572-.396zm2.964 6.936c.752 0 1.32-.128 1.704-.384s.576-.656.576-1.2c0-1.048-.76-1.572-2.28-1.572h-2.964v3.156z"/><path d="m63.9903 9.072c-1.088 0-1.936-.312-2.544-.936s-.912-1.532-.912-2.724v-4.812h.888v4.776c0 .976.22 1.704.66 2.184s1.076.72 1.908.72c.84 0 1.48-.24 1.92-.72s.66-1.208.66-2.184v-4.776h.864v4.812c0 1.192-.304 2.1-.912 2.724-.6.624-1.444.936-2.532.936z"/><path d="m71.5781 1.368h-2.952v-.768h6.792v.768h-2.952v7.632h-.888z"/><path d="m79.4407 5.052-1.716 1.74v2.208h-.888v-8.4h.888v5.076l4.932-5.076h1.02l-3.636 3.804 3.888 4.596h-1.056z"/><path d="m88.7353 9.072c-.832 0-1.588-.184-2.268-.552-.672-.376-1.2-.888-1.584-1.536-.376-.648-.564-1.376-.564-2.184s.188-1.536.564-2.184c.384-.648.912-1.156 1.584-1.524.68-.376 1.436-.564 2.268-.564s1.58.184 2.244.552c.672.368 1.2.88 1.584 1.536.384.648.576 1.376.576 2.184s-.192 1.54-.576 2.196c-.384.648-.912 1.156-1.584 1.524-.664.368-1.412.552-2.244.552zm0-.792c.664 0 1.264-.148 1.8-.444.536-.304.956-.72 1.26-1.248.304-.536.456-1.132.456-1.788s-.152-1.248-.456-1.776c-.304-.536-.724-.952-1.26-1.248-.536-.304-1.136-.456-1.8-.456s-1.268.152-1.812.456c-.536.296-.96.712-1.272 1.248-.304.528-.456 1.12-.456 1.776s.152 1.252.456 1.788c.312.528.736.944 1.272 1.248.544.296 1.148.444 1.812.444z"/></g></svg>